<?xml version="1.0" encoding="iso-8859-1"?>
<!-- Uploaded to: SVG Repo, www.svgrepo.com, Generator: SVG Repo Mixer Tools -->
<svg height="800px" width="800px" version="1.1" id="Layer_1" xmlns="http://www.w3.org/2000/svg" xmlns:xlink="http://www.w3.org/1999/xlink" 
	 viewBox="0 0 512 512" xml:space="preserve">
<path style="fill:#6E76E5;" d="M442.182,0h-93.091c-12.853,0-23.273,10.42-23.273,23.273v162.909H256h-69.818V23.273
	C186.182,10.42,175.762,0,162.909,0H69.818C56.965,0,46.545,10.42,46.545,23.273v465.455c0,12.853,10.42,23.273,23.273,23.273
	h93.091c12.853,0,23.273-10.42,23.273-23.273V325.818H256h69.818v162.909c0,12.853,10.42,23.273,23.273,23.273h93.091
	c12.853,0,23.273-10.42,23.273-23.273V23.273C465.455,10.42,455.035,0,442.182,0z"/>
<path style="fill:#424EDE;" d="M69.818,512h93.091c12.853,0,23.273-10.42,23.273-23.273V325.818H256V186.182h-69.818V23.273
	C186.182,10.42,175.762,0,162.909,0H69.818C56.965,0,46.545,10.42,46.545,23.273v465.455C46.545,501.58,56.965,512,69.818,512z"/>
</svg>